<svg width="518" height="182" viewBox="0 0 518 182" fill="none" xmlns="http://www.w3.org/2000/svg">
<path d="M11.1035 21.9868C9.6648 21.9868 8.33014 21.7528 7.09947 21.2848C5.88614 20.8168 4.8288 20.1581 3.92747 19.3088C3.04347 18.4595 2.35014 17.4628 1.84747 16.3188C1.36214 15.1748 1.11947 13.9268 1.11947 12.5748C1.11947 11.2228 1.36214 9.9748 1.84747 8.8308C2.35014 7.6868 3.05214 6.69014 3.95347 5.8408C4.8548 4.99147 5.91214 4.3328 7.12547 3.8648C8.3388 3.3968 9.65614 3.1628 11.0775 3.1628C12.5161 3.1628 13.8335 3.3968 15.0295 3.8648C16.2428 4.3328 17.2915 4.99147 18.1755 5.8408C19.0768 6.69014 19.7788 7.6868 20.2815 8.8308C20.7841 9.95747 21.0355 11.2055 21.0355 12.5748C21.0355 13.9268 20.7841 15.1835 20.2815 16.3448C19.7788 17.4888 19.0768 18.4855 18.1755 19.3348C17.2915 20.1668 16.2428 20.8168 15.0295 21.2848C13.8335 21.7528 12.5248 21.9868 11.1035 21.9868ZM11.0775 18.3988C11.8921 18.3988 12.6375 18.2601 13.3135 17.9828C14.0068 17.7055 14.6135 17.3068 15.1335 16.7868C15.6535 16.2668 16.0521 15.6515 16.3295 14.9408C16.6241 14.2301 16.7715 13.4415 16.7715 12.5748C16.7715 11.7081 16.6241 10.9195 16.3295 10.2088C16.0521 9.49814 15.6535 8.8828 15.1335 8.3628C14.6308 7.8428 14.0328 7.44414 13.3395 7.1668C12.6461 6.88947 11.8921 6.7508 11.0775 6.7508C10.2628 6.7508 9.5088 6.88947 8.81547 7.1668C8.13947 7.44414 7.54147 7.8428 7.02147 8.3628C6.50147 8.8828 6.09414 9.49814 5.79947 10.2088C5.52214 10.9195 5.38347 11.7081 5.38347 12.5748C5.38347 13.4241 5.52214 14.2128 5.79947 14.9408C6.09414 15.6515 6.4928 16.2668 6.99547 16.7868C7.51547 17.3068 8.12214 17.7055 8.81547 17.9828C9.5088 18.2601 10.2628 18.3988 11.0775 18.3988ZM24.201 21.6748V3.4748H27.685L38.423 16.5788H36.733V3.4748H40.893V21.6748H37.435L26.671 8.5708H28.361V21.6748H24.201ZM49.073 10.8068H57.835V14.0828H49.073V10.8068ZM49.385 18.2948H59.291V21.6748H45.199V3.4748H58.953V6.8548H49.385V18.2948ZM70.0057 21.6748V3.4748H73.4897L81.2377 16.3188H79.3917L87.0097 3.4748H90.4677L90.5197 21.6748H86.5677L86.5417 9.5328H87.2697L81.1857 19.7508H79.2877L73.0737 9.5328H73.9577V21.6748H70.0057ZM103.678 21.9868C102.239 21.9868 100.904 21.7528 99.6737 21.2848C98.4604 20.8168 97.403 20.1581 96.5017 19.3088C95.6177 18.4595 94.9244 17.4628 94.4217 16.3188C93.9364 15.1748 93.6937 13.9268 93.6937 12.5748C93.6937 11.2228 93.9364 9.9748 94.4217 8.8308C94.9244 7.6868 95.6264 6.69014 96.5277 5.8408C97.429 4.99147 98.4864 4.3328 99.6997 3.8648C100.913 3.3968 102.23 3.1628 103.652 3.1628C105.09 3.1628 106.408 3.3968 107.604 3.8648C108.817 4.3328 109.866 4.99147 110.75 5.8408C111.651 6.69014 112.353 7.6868 112.856 8.8308C113.358 9.95747 113.61 11.2055 113.61 12.5748C113.61 13.9268 113.358 15.1835 112.856 16.3448C112.353 17.4888 111.651 18.4855 110.75 19.3348C109.866 20.1668 108.817 20.8168 107.604 21.2848C106.408 21.7528 105.099 21.9868 103.678 21.9868ZM103.652 18.3988C104.466 18.3988 105.212 18.2601 105.888 17.9828C106.581 17.7055 107.188 17.3068 107.708 16.7868C108.228 16.2668 108.626 15.6515 108.904 14.9408C109.198 14.2301 109.346 13.4415 109.346 12.5748C109.346 11.7081 109.198 10.9195 108.904 10.2088C108.626 9.49814 108.228 8.8828 107.708 8.3628C107.205 7.8428 106.607 7.44414 105.914 7.1668C105.22 6.88947 104.466 6.7508 103.652 6.7508C102.837 6.7508 102.083 6.88947 101.39 7.1668C100.714 7.44414 100.116 7.8428 99.5957 8.3628C99.0757 8.8828 98.6684 9.49814 98.3737 10.2088C98.0964 10.9195 97.9577 11.7081 97.9577 12.5748C97.9577 13.4241 98.0964 14.2128 98.3737 14.9408C98.6684 15.6515 99.067 16.2668 99.5697 16.7868C100.09 17.3068 100.696 17.7055 101.39 17.9828C102.083 18.2601 102.837 18.3988 103.652 18.3988ZM116.775 21.6748V3.4748H120.259L130.997 16.5788H129.307V3.4748H133.467V21.6748H130.009L119.245 8.5708H120.935V21.6748H116.775ZM141.543 21.6748V6.9068H135.719V3.4748H151.579V6.9068H145.755V21.6748H141.543ZM166.326 3.4748H170.538V21.6748H166.326V3.4748ZM158.058 21.6748H153.846V3.4748H158.058V21.6748ZM166.638 14.2128H157.746V10.6508H166.638V14.2128ZM188.764 15.9808V12.7308H196.122V15.9808H188.764ZM212.007 24.7948V0.354803H214.607V24.7948H212.007ZM212.943 21.9868C211.487 21.9868 210.091 21.7961 208.757 21.4148C207.422 21.0161 206.347 20.5048 205.533 19.8808L206.963 16.7088C207.743 17.2635 208.661 17.7228 209.719 18.0868C210.793 18.4335 211.877 18.6068 212.969 18.6068C213.801 18.6068 214.468 18.5288 214.971 18.3728C215.491 18.1995 215.872 17.9655 216.115 17.6708C216.357 17.3761 216.479 17.0381 216.479 16.6568C216.479 16.1715 216.288 15.7901 215.907 15.5128C215.525 15.2181 215.023 14.9841 214.399 14.8108C213.775 14.6201 213.081 14.4468 212.319 14.2908C211.573 14.1175 210.819 13.9095 210.057 13.6668C209.311 13.4241 208.627 13.1121 208.003 12.7308C207.379 12.3495 206.867 11.8468 206.469 11.2228C206.087 10.5988 205.897 9.80147 205.897 8.8308C205.897 7.7908 206.174 6.84614 206.729 5.9968C207.301 5.13014 208.15 4.44547 209.277 3.9428C210.421 3.4228 211.851 3.1628 213.567 3.1628C214.711 3.1628 215.837 3.30147 216.947 3.5788C218.056 3.8388 219.035 4.23747 219.885 4.7748L218.585 7.9728C217.735 7.48747 216.886 7.13214 216.037 6.9068C215.187 6.66414 214.355 6.5428 213.541 6.5428C212.726 6.5428 212.059 6.63814 211.539 6.8288C211.019 7.01947 210.646 7.2708 210.421 7.5828C210.195 7.87747 210.083 8.22414 210.083 8.6228C210.083 9.0908 210.273 9.47214 210.655 9.7668C211.036 10.0441 211.539 10.2695 212.163 10.4428C212.787 10.6161 213.471 10.7895 214.217 10.9628C214.979 11.1361 215.733 11.3355 216.479 11.5608C217.241 11.7861 217.935 12.0895 218.559 12.4708C219.183 12.8521 219.685 13.3548 220.067 13.9788C220.465 14.6028 220.665 15.3915 220.665 16.3448C220.665 17.3675 220.379 18.3035 219.807 19.1528C219.235 20.0021 218.377 20.6868 217.233 21.2068C216.106 21.7268 214.676 21.9868 212.943 21.9868ZM222.445 17.8528V15.0188L231.025 3.4748H235.445L227.047 15.0188L224.993 14.4208H239.319V17.8528H222.445ZM232.247 21.6748V17.8528L232.377 14.4208V11.0148H236.355V21.6748H232.247ZM246.873 3.1628C248.554 3.1628 250.002 3.50947 251.215 4.2028C252.428 4.89614 253.364 5.91014 254.023 7.2448C254.682 8.56214 255.011 10.2088 255.011 12.1848C255.011 14.2821 254.612 16.0588 253.815 17.5148C253.035 18.9708 251.952 20.0801 250.565 20.8428C249.178 21.6055 247.566 21.9868 245.729 21.9868C244.776 21.9868 243.857 21.8828 242.973 21.6748C242.089 21.4668 241.326 21.1548 240.685 20.7388L242.245 17.6448C242.748 17.9915 243.285 18.2341 243.857 18.3728C244.429 18.4941 245.027 18.5548 245.651 18.5548C247.211 18.5548 248.45 18.0781 249.369 17.1248C250.305 16.1715 250.773 14.7588 250.773 12.8868C250.773 12.5748 250.764 12.2281 250.747 11.8468C250.73 11.4655 250.686 11.0841 250.617 10.7028L251.761 11.7948C251.466 12.4708 251.05 13.0428 250.513 13.5108C249.976 13.9615 249.352 14.3081 248.641 14.5508C247.93 14.7761 247.133 14.8888 246.249 14.8888C245.088 14.8888 244.03 14.6548 243.077 14.1868C242.141 13.7188 241.387 13.0601 240.815 12.2108C240.26 11.3615 239.983 10.3648 239.983 9.2208C239.983 7.9728 240.286 6.89814 240.893 5.9968C241.517 5.09547 242.349 4.40214 243.389 3.9168C244.446 3.41414 245.608 3.1628 246.873 3.1628ZM247.133 6.3088C246.526 6.3088 245.998 6.42147 245.547 6.6468C245.096 6.8548 244.741 7.1668 244.481 7.5828C244.221 7.98147 244.091 8.45814 244.091 9.0128C244.091 9.8448 244.368 10.5121 244.923 11.0148C245.495 11.5001 246.249 11.7428 247.185 11.7428C247.792 11.7428 248.329 11.6301 248.797 11.4048C249.282 11.1621 249.655 10.8328 249.915 10.4168C250.175 10.0008 250.305 9.5328 250.305 9.0128C250.305 8.4928 250.175 8.03347 249.915 7.6348C249.672 7.2188 249.317 6.89814 248.849 6.6728C248.381 6.43014 247.809 6.3088 247.133 6.3088ZM259.094 21.8828C258.4 21.8828 257.802 21.6488 257.3 21.1808C256.814 20.6955 256.572 20.0801 256.572 19.3348C256.572 18.5895 256.814 17.9915 257.3 17.5408C257.802 17.0728 258.4 16.8388 259.094 16.8388C259.804 16.8388 260.402 17.0728 260.888 17.5408C261.373 17.9915 261.616 18.5895 261.616 19.3348C261.616 20.0801 261.373 20.6955 260.888 21.1808C260.402 21.6488 259.804 21.8828 259.094 21.8828ZM269.902 3.1628C271.584 3.1628 273.031 3.50947 274.244 4.2028C275.458 4.89614 276.394 5.91014 277.052 7.2448C277.711 8.56214 278.04 10.2088 278.04 12.1848C278.04 14.2821 277.642 16.0588 276.844 17.5148C276.064 18.9708 274.981 20.0801 273.594 20.8428C272.208 21.6055 270.596 21.9868 268.758 21.9868C267.805 21.9868 266.886 21.8828 266.002 21.6748C265.118 21.4668 264.356 21.1548 263.714 20.7388L265.274 17.6448C265.777 17.9915 266.314 18.2341 266.886 18.3728C267.458 18.4941 268.056 18.5548 268.68 18.5548C270.24 18.5548 271.48 18.0781 272.398 17.1248C273.334 16.1715 273.802 14.7588 273.802 12.8868C273.802 12.5748 273.794 12.2281 273.776 11.8468C273.759 11.4655 273.716 11.0841 273.646 10.7028L274.79 11.7948C274.496 12.4708 274.08 13.0428 273.542 13.5108C273.005 13.9615 272.381 14.3081 271.67 14.5508C270.96 14.7761 270.162 14.8888 269.278 14.8888C268.117 14.8888 267.06 14.6548 266.106 14.1868C265.17 13.7188 264.416 13.0601 263.844 12.2108C263.29 11.3615 263.012 10.3648 263.012 9.2208C263.012 7.9728 263.316 6.89814 263.922 5.9968C264.546 5.09547 265.378 4.40214 266.418 3.9168C267.476 3.41414 268.637 3.1628 269.902 3.1628ZM270.162 6.3088C269.556 6.3088 269.027 6.42147 268.576 6.6468C268.126 6.8548 267.77 7.1668 267.51 7.5828C267.25 7.98147 267.12 8.45814 267.12 9.0128C267.12 9.8448 267.398 10.5121 267.952 11.0148C268.524 11.5001 269.278 11.7428 270.214 11.7428C270.821 11.7428 271.358 11.6301 271.826 11.4048C272.312 11.1621 272.684 10.8328 272.944 10.4168C273.204 10.0008 273.334 9.5328 273.334 9.0128C273.334 8.4928 273.204 8.03347 272.944 7.6348C272.702 7.2188 272.346 6.89814 271.878 6.6728C271.41 6.43014 270.838 6.3088 270.162 6.3088ZM286.249 21.9868C284.984 21.9868 283.727 21.8221 282.479 21.4928C281.248 21.1461 280.191 20.6608 279.307 20.0368L280.971 16.8128C281.664 17.3155 282.462 17.7141 283.363 18.0088C284.282 18.3035 285.209 18.4508 286.145 18.4508C287.202 18.4508 288.034 18.2428 288.641 17.8268C289.248 17.4108 289.551 16.8301 289.551 16.0848C289.551 15.6168 289.43 15.2008 289.187 14.8368C288.944 14.4728 288.511 14.1955 287.887 14.0048C287.28 13.8141 286.422 13.7188 285.313 13.7188H280.659L281.595 3.4748H292.697V6.8548H283.103L285.287 4.9308L284.637 12.2368L282.453 10.3128H286.301C288.104 10.3128 289.551 10.5641 290.643 11.0668C291.752 11.5521 292.558 12.2195 293.061 13.0688C293.564 13.9181 293.815 14.8801 293.815 15.9548C293.815 17.0295 293.546 18.0261 293.009 18.9448C292.472 19.8461 291.64 20.5828 290.513 21.1548C289.404 21.7095 287.982 21.9868 286.249 21.9868ZM6.03347 85.6748V70.9068H0.209469V67.4748H16.0695V70.9068H10.2455V85.6748H6.03347ZM26.5517 71.4788C27.6611 71.4788 28.6491 71.7041 29.5157 72.1548C30.3997 72.5881 31.0931 73.2641 31.5957 74.1828C32.0984 75.0841 32.3497 76.2455 32.3497 77.6668V85.6748H28.2937V78.2908C28.2937 77.1641 28.0424 76.3321 27.5397 75.7948C27.0544 75.2575 26.3611 74.9888 25.4597 74.9888C24.8184 74.9888 24.2377 75.1275 23.7177 75.4048C23.2151 75.6648 22.8164 76.0721 22.5217 76.6268C22.2444 77.1815 22.1057 77.8921 22.1057 78.7588V85.6748H18.0497V66.3828H22.1057V75.5608L21.1957 74.3908C21.6984 73.4548 22.4177 72.7355 23.3537 72.2328C24.2897 71.7301 25.3557 71.4788 26.5517 71.4788ZM36.0263 85.6748V71.6868H40.0823V85.6748H36.0263ZM38.0543 69.7368C37.309 69.7368 36.7023 69.5201 36.2343 69.0868C35.7663 68.6535 35.5323 68.1161 35.5323 67.4748C35.5323 66.8335 35.7663 66.2961 36.2343 65.8628C36.7023 65.4295 37.309 65.2128 38.0543 65.2128C38.7996 65.2128 39.4063 65.4208 39.8743 65.8368C40.3423 66.2355 40.5763 66.7555 40.5763 67.3968C40.5763 68.0728 40.3423 68.6361 39.8743 69.0868C39.4236 69.5201 38.817 69.7368 38.0543 69.7368ZM48.5526 85.8828C47.3566 85.8828 46.2039 85.7441 45.0946 85.4668C44.0026 85.1721 43.1359 84.8081 42.4946 84.3748L43.8466 81.4628C44.4879 81.8615 45.2419 82.1908 46.1086 82.4508C46.9926 82.6935 47.8593 82.8148 48.7086 82.8148C49.6446 82.8148 50.3033 82.7021 50.6846 82.4768C51.0833 82.2515 51.2826 81.9395 51.2826 81.5408C51.2826 81.2115 51.1266 80.9688 50.8146 80.8128C50.5199 80.6395 50.1213 80.5095 49.6186 80.4228C49.1159 80.3361 48.5613 80.2495 47.9546 80.1628C47.3653 80.0761 46.7673 79.9635 46.1606 79.8248C45.5539 79.6688 44.9993 79.4435 44.4966 79.1488C43.9939 78.8541 43.5866 78.4555 43.2746 77.9528C42.9799 77.4501 42.8326 76.8001 42.8326 76.0028C42.8326 75.1188 43.0839 74.3388 43.5866 73.6628C44.1066 72.9868 44.8519 72.4581 45.8226 72.0768C46.7933 71.6781 47.9546 71.4788 49.3066 71.4788C50.2599 71.4788 51.2306 71.5828 52.2186 71.7908C53.2066 71.9988 54.0299 72.3021 54.6886 72.7008L53.3366 75.5868C52.6606 75.1881 51.9759 74.9195 51.2826 74.7808C50.6066 74.6248 49.9479 74.5468 49.3066 74.5468C48.4053 74.5468 47.7466 74.6681 47.3306 74.9108C46.9146 75.1535 46.7066 75.4655 46.7066 75.8468C46.7066 76.1935 46.8539 76.4535 47.1486 76.6268C47.4606 76.8001 47.8679 76.9388 48.3706 77.0428C48.8733 77.1468 49.4193 77.2421 50.0086 77.3288C50.6153 77.3981 51.2219 77.5108 51.8286 77.6668C52.4353 77.8228 52.9813 78.0481 53.4666 78.3428C53.9693 78.6201 54.3766 79.0101 54.6886 79.5128C55.0006 79.9981 55.1566 80.6395 55.1566 81.4368C55.1566 82.3035 54.8966 83.0748 54.3766 83.7508C53.8566 84.4095 53.1026 84.9295 52.1146 85.3108C51.1439 85.6921 49.9566 85.8828 48.5526 85.8828ZM82.9364 71.4788C84.0457 71.4788 85.0251 71.7041 85.8744 72.1548C86.7411 72.5881 87.4171 73.2641 87.9024 74.1828C88.4051 75.0841 88.6564 76.2455 88.6564 77.6668V85.6748H84.6004V78.2908C84.6004 77.1641 84.3664 76.3321 83.8984 75.7948C83.4304 75.2575 82.7717 74.9888 81.9224 74.9888C81.3331 74.9888 80.8044 75.1275 80.3364 75.4048C79.8684 75.6648 79.5044 76.0635 79.2444 76.6008C78.9844 77.1381 78.8544 77.8228 78.8544 78.6548V85.6748H74.7984V78.2908C74.7984 77.1641 74.5644 76.3321 74.0964 75.7948C73.6457 75.2575 72.9957 74.9888 72.1464 74.9888C71.5571 74.9888 71.0284 75.1275 70.5604 75.4048C70.0924 75.6648 69.7284 76.0635 69.4684 76.6008C69.2084 77.1381 69.0784 77.8228 69.0784 78.6548V85.6748H65.0224V71.6868H68.8964V75.5088L68.1684 74.3908C68.6537 73.4375 69.3384 72.7181 70.2224 72.2328C71.1237 71.7301 72.1464 71.4788 73.2904 71.4788C74.5731 71.4788 75.6911 71.8081 76.6444 72.4668C77.6151 73.1081 78.2564 74.0961 78.5684 75.4308L77.1384 75.0408C77.6064 73.9488 78.3517 73.0821 79.3744 72.4408C80.4144 71.7995 81.6017 71.4788 82.9364 71.4788ZM99.3355 85.8828C97.7408 85.8828 96.3368 85.5708 95.1235 84.9468C93.9275 84.3228 93.0002 83.4735 92.3415 82.3988C91.6828 81.3068 91.3535 80.0675 91.3535 78.6808C91.3535 77.2768 91.6742 76.0375 92.3155 74.9628C92.9742 73.8708 93.8668 73.0215 94.9935 72.4148C96.1202 71.7908 97.3942 71.4788 98.8155 71.4788C100.185 71.4788 101.415 71.7735 102.507 72.3628C103.617 72.9348 104.492 73.7668 105.133 74.8588C105.775 75.9335 106.095 77.2248 106.095 78.7328C106.095 78.8888 106.087 79.0708 106.069 79.2788C106.052 79.4695 106.035 79.6515 106.017 79.8248H94.6555V77.4588H103.885L102.325 78.1608C102.325 77.4328 102.178 76.8001 101.883 76.2628C101.589 75.7255 101.181 75.3095 100.661 75.0148C100.141 74.7028 99.5348 74.5468 98.8415 74.5468C98.1482 74.5468 97.5328 74.7028 96.9955 75.0148C96.4755 75.3095 96.0682 75.7341 95.7735 76.2888C95.4788 76.8261 95.3315 77.4675 95.3315 78.2128V78.8368C95.3315 79.5995 95.4962 80.2755 95.8255 80.8648C96.1722 81.4368 96.6488 81.8788 97.2555 82.1908C97.8795 82.4855 98.6075 82.6328 99.4395 82.6328C100.185 82.6328 100.835 82.5201 101.389 82.2948C101.961 82.0695 102.481 81.7315 102.949 81.2808L105.107 83.6208C104.466 84.3488 103.66 84.9121 102.689 85.3108C101.719 85.6921 100.601 85.8828 99.3355 85.8828ZM126.71 71.4788C127.819 71.4788 128.798 71.7041 129.648 72.1548C130.514 72.5881 131.19 73.2641 131.676 74.1828C132.178 75.0841 132.43 76.2455 132.43 77.6668V85.6748H128.374V78.2908C128.374 77.1641 128.14 76.3321 127.672 75.7948C127.204 75.2575 126.545 74.9888 125.696 74.9888C125.106 74.9888 124.578 75.1275 124.11 75.4048C123.642 75.6648 123.278 76.0635 123.018 76.6008C122.758 77.1381 122.628 77.8228 122.628 78.6548V85.6748H118.572V78.2908C118.572 77.1641 118.338 76.3321 117.87 75.7948C117.419 75.2575 116.769 74.9888 115.92 74.9888C115.33 74.9888 114.802 75.1275 114.334 75.4048C113.866 75.6648 113.502 76.0635 113.242 76.6008C112.982 77.1381 112.852 77.8228 112.852 78.6548V85.6748H108.796V71.6868H112.67V75.5088L111.942 74.3908C112.427 73.4375 113.112 72.7181 113.996 72.2328C114.897 71.7301 115.92 71.4788 117.064 71.4788C118.346 71.4788 119.464 71.8081 120.418 72.4668C121.388 73.1081 122.03 74.0961 122.342 75.4308L120.912 75.0408C121.38 73.9488 122.125 73.0821 123.148 72.4408C124.188 71.7995 125.375 71.4788 126.71 71.4788ZM144.333 85.8828C143.103 85.8828 142.045 85.6228 141.161 85.1028C140.277 84.5828 139.601 83.7941 139.133 82.7368C138.665 81.6621 138.431 80.3101 138.431 78.6808C138.431 77.0341 138.674 75.6821 139.159 74.6248C139.662 73.5675 140.355 72.7788 141.239 72.2588C142.123 71.7388 143.155 71.4788 144.333 71.4788C145.651 71.4788 146.829 71.7735 147.869 72.3628C148.927 72.9521 149.759 73.7841 150.365 74.8588C150.989 75.9335 151.301 77.2075 151.301 78.6808C151.301 80.1368 150.989 81.4021 150.365 82.4768C149.759 83.5515 148.927 84.3921 147.869 84.9988C146.829 85.5881 145.651 85.8828 144.333 85.8828ZM136.065 85.6748V66.3828H140.121V74.5208L139.861 78.6548L139.939 82.8148V85.6748H136.065ZM143.631 82.5548C144.307 82.5548 144.905 82.3988 145.425 82.0868C145.963 81.7748 146.387 81.3328 146.699 80.7608C147.029 80.1715 147.193 79.4781 147.193 78.6808C147.193 77.8661 147.029 77.1728 146.699 76.6008C146.387 76.0288 145.963 75.5868 145.425 75.2748C144.905 74.9628 144.307 74.8068 143.631 74.8068C142.955 74.8068 142.349 74.9628 141.811 75.2748C141.274 75.5868 140.849 76.0288 140.537 76.6008C140.225 77.1728 140.069 77.8661 140.069 78.6808C140.069 79.4781 140.225 80.1715 140.537 80.7608C140.849 81.3328 141.274 81.7748 141.811 82.0868C142.349 82.3988 142.955 82.5548 143.631 82.5548ZM160.959 85.8828C159.364 85.8828 157.96 85.5708 156.747 84.9468C155.551 84.3228 154.623 83.4735 153.965 82.3988C153.306 81.3068 152.977 80.0675 152.977 78.6808C152.977 77.2768 153.297 76.0375 153.939 74.9628C154.597 73.8708 155.49 73.0215 156.617 72.4148C157.743 71.7908 159.017 71.4788 160.439 71.4788C161.808 71.4788 163.039 71.7735 164.131 72.3628C165.24 72.9348 166.115 73.7668 166.757 74.8588C167.398 75.9335 167.719 77.2248 167.719 78.7328C167.719 78.8888 167.71 79.0708 167.693 79.2788C167.675 79.4695 167.658 79.6515 167.641 79.8248H156.279V77.4588H165.509L163.949 78.1608C163.949 77.4328 163.801 76.8001 163.507 76.2628C163.212 75.7255 162.805 75.3095 162.285 75.0148C161.765 74.7028 161.158 74.5468 160.465 74.5468C159.771 74.5468 159.156 74.7028 158.619 75.0148C158.099 75.3095 157.691 75.7341 157.397 76.2888C157.102 76.8261 156.955 77.4675 156.955 78.2128V78.8368C156.955 79.5995 157.119 80.2755 157.449 80.8648C157.795 81.4368 158.272 81.8788 158.879 82.1908C159.503 82.4855 160.231 82.6328 161.063 82.6328C161.808 82.6328 162.458 82.5201 163.013 82.2948C163.585 82.0695 164.105 81.7315 164.573 81.2808L166.731 83.6208C166.089 84.3488 165.283 84.9121 164.313 85.3108C163.342 85.6921 162.224 85.8828 160.959 85.8828ZM170.419 85.6748V71.6868H174.293V75.6388L173.747 74.4948C174.163 73.5068 174.83 72.7615 175.749 72.2588C176.668 71.7388 177.786 71.4788 179.103 71.4788V75.2228C178.93 75.2055 178.774 75.1968 178.635 75.1968C178.496 75.1795 178.349 75.1708 178.193 75.1708C177.084 75.1708 176.182 75.4915 175.489 76.1328C174.813 76.7568 174.475 77.7361 174.475 79.0708V85.6748H170.419ZM186.322 85.8828C185.126 85.8828 183.973 85.7441 182.864 85.4668C181.772 85.1721 180.905 84.8081 180.264 84.3748L181.616 81.4628C182.257 81.8615 183.011 82.1908 183.878 82.4508C184.762 82.6935 185.629 82.8148 186.478 82.8148C187.414 82.8148 188.073 82.7021 188.454 82.4768C188.853 82.2515 189.052 81.9395 189.052 81.5408C189.052 81.2115 188.896 80.9688 188.584 80.8128C188.289 80.6395 187.891 80.5095 187.388 80.4228C186.885 80.3361 186.331 80.2495 185.724 80.1628C185.135 80.0761 184.537 79.9635 183.93 79.8248C183.323 79.6688 182.769 79.4435 182.266 79.1488C181.763 78.8541 181.356 78.4555 181.044 77.9528C180.749 77.4501 180.602 76.8001 180.602 76.0028C180.602 75.1188 180.853 74.3388 181.356 73.6628C181.876 72.9868 182.621 72.4581 183.592 72.0768C184.563 71.6781 185.724 71.4788 187.076 71.4788C188.029 71.4788 189 71.5828 189.988 71.7908C190.976 71.9988 191.799 72.3021 192.458 72.7008L191.106 75.5868C190.43 75.1881 189.745 74.9195 189.052 74.7808C188.376 74.6248 187.717 74.5468 187.076 74.5468C186.175 74.5468 185.516 74.6681 185.1 74.9108C184.684 75.1535 184.476 75.4655 184.476 75.8468C184.476 76.1935 184.623 76.4535 184.918 76.6268C185.23 76.8001 185.637 76.9388 186.14 77.0428C186.643 77.1468 187.189 77.2421 187.778 77.3288C188.385 77.3981 188.991 77.5108 189.598 77.6668C190.205 77.8228 190.751 78.0481 191.236 78.3428C191.739 78.6201 192.146 79.0101 192.458 79.5128C192.77 79.9981 192.926 80.6395 192.926 81.4368C192.926 82.3035 192.666 83.0748 192.146 83.7508C191.626 84.4095 190.872 84.9295 189.884 85.3108C188.913 85.6921 187.726 85.8828 186.322 85.8828ZM203.931 71.4788C205.04 71.4788 206.028 71.7041 206.895 72.1548C207.779 72.5881 208.472 73.2641 208.975 74.1828C209.477 75.0841 209.729 76.2455 209.729 77.6668V85.6748H205.673V78.2908C205.673 77.1641 205.421 76.3321 204.919 75.7948C204.433 75.2575 203.74 74.9888 202.839 74.9888C202.197 74.9888 201.617 75.1275 201.097 75.4048C200.594 75.6648 200.195 76.0721 199.901 76.6268C199.623 77.1815 199.485 77.8921 199.485 78.7588V85.6748H195.429V66.3828H199.485V75.5608L198.575 74.3908C199.077 73.4548 199.797 72.7355 200.733 72.2328C201.669 71.7301 202.735 71.4788 203.931 71.4788ZM213.405 85.6748V71.6868H217.461V85.6748H213.405ZM215.433 69.7368C214.688 69.7368 214.081 69.5201 213.613 69.0868C213.145 68.6535 212.911 68.1161 212.911 67.4748C212.911 66.8335 213.145 66.2961 213.613 65.8628C214.081 65.4295 214.688 65.2128 215.433 65.2128C216.179 65.2128 216.785 65.4208 217.253 65.8368C217.721 66.2355 217.955 66.7555 217.955 67.3968C217.955 68.0728 217.721 68.6361 217.253 69.0868C216.803 69.5201 216.196 69.7368 215.433 69.7368ZM229.494 85.8828C228.315 85.8828 227.284 85.6228 226.4 85.1028C225.516 84.5828 224.822 83.7941 224.32 82.7368C223.834 81.6621 223.592 80.3101 223.592 78.6808C223.592 77.0341 223.826 75.6821 224.294 74.6248C224.762 73.5675 225.438 72.7788 226.322 72.2588C227.206 71.7388 228.263 71.4788 229.494 71.4788C230.811 71.4788 231.99 71.7821 233.03 72.3888C234.087 72.9781 234.919 73.8101 235.526 74.8848C236.15 75.9595 236.462 77.2248 236.462 78.6808C236.462 80.1541 236.15 81.4281 235.526 82.5028C234.919 83.5775 234.087 84.4095 233.03 84.9988C231.99 85.5881 230.811 85.8828 229.494 85.8828ZM221.226 90.7188V71.6868H225.1V74.5468L225.022 78.7068L225.282 82.8408V90.7188H221.226ZM228.792 82.5548C229.468 82.5548 230.066 82.3988 230.586 82.0868C231.123 81.7748 231.548 81.3328 231.86 80.7608C232.189 80.1715 232.354 79.4781 232.354 78.6808C232.354 77.8661 232.189 77.1728 231.86 76.6008C231.548 76.0288 231.123 75.5868 230.586 75.2748C230.066 74.9628 229.468 74.8068 228.792 74.8068C228.116 74.8068 227.509 74.9628 226.972 75.2748C226.434 75.5868 226.01 76.0288 225.698 76.6008C225.386 77.1728 225.23 77.8661 225.23 78.6808C225.23 79.4781 225.386 80.1715 225.698 80.7608C226.01 81.3328 226.434 81.7748 226.972 82.0868C227.509 82.3988 228.116 82.5548 228.792 82.5548ZM253.3 85.8828C251.792 85.8828 250.449 85.5795 249.27 84.9728C248.091 84.3488 247.164 83.4908 246.488 82.3988C245.829 81.3068 245.5 80.0675 245.5 78.6808C245.5 77.2768 245.829 76.0375 246.488 74.9628C247.164 73.8708 248.091 73.0215 249.27 72.4148C250.449 71.7908 251.792 71.4788 253.3 71.4788C254.773 71.4788 256.056 71.7908 257.148 72.4148C258.24 73.0215 259.046 73.8968 259.566 75.0408L256.42 76.7308C256.056 76.0721 255.597 75.5868 255.042 75.2748C254.505 74.9628 253.915 74.8068 253.274 74.8068C252.581 74.8068 251.957 74.9628 251.402 75.2748C250.847 75.5868 250.405 76.0288 250.076 76.6008C249.764 77.1728 249.608 77.8661 249.608 78.6808C249.608 79.4955 249.764 80.1888 250.076 80.7608C250.405 81.3328 250.847 81.7748 251.402 82.0868C251.957 82.3988 252.581 82.5548 253.274 82.5548C253.915 82.5548 254.505 82.4075 255.042 82.1128C255.597 81.8008 256.056 81.3068 256.42 80.6308L259.566 82.3468C259.046 83.4735 258.24 84.3488 257.148 84.9728C256.056 85.5795 254.773 85.8828 253.3 85.8828ZM268.38 85.8828C266.889 85.8828 265.563 85.5708 264.402 84.9468C263.258 84.3228 262.348 83.4735 261.672 82.3988C261.013 81.3068 260.684 80.0675 260.684 78.6808C260.684 77.2768 261.013 76.0375 261.672 74.9628C262.348 73.8708 263.258 73.0215 264.402 72.4148C265.563 71.7908 266.889 71.4788 268.38 71.4788C269.853 71.4788 271.17 71.7908 272.332 72.4148C273.493 73.0215 274.403 73.8621 275.062 74.9368C275.72 76.0115 276.05 77.2595 276.05 78.6808C276.05 80.0675 275.72 81.3068 275.062 82.3988C274.403 83.4735 273.493 84.3228 272.332 84.9468C271.17 85.5708 269.853 85.8828 268.38 85.8828ZM268.38 82.5548C269.056 82.5548 269.662 82.3988 270.2 82.0868C270.737 81.7748 271.162 81.3328 271.474 80.7608C271.786 80.1715 271.942 79.4781 271.942 78.6808C271.942 77.8661 271.786 77.1728 271.474 76.6008C271.162 76.0288 270.737 75.5868 270.2 75.2748C269.662 74.9628 269.056 74.8068 268.38 74.8068C267.704 74.8068 267.097 74.9628 266.56 75.2748C266.022 75.5868 265.589 76.0288 265.26 76.6008C264.948 77.1728 264.792 77.8661 264.792 78.6808C264.792 79.4781 264.948 80.1715 265.26 80.7608C265.589 81.3328 266.022 81.7748 266.56 82.0868C267.097 82.3988 267.704 82.5548 268.38 82.5548ZM282.176 85.6748L276.3 71.6868H280.486L285.374 83.7248H283.294L288.364 71.6868H292.264L286.362 85.6748H282.176ZM300.48 85.8828C298.885 85.8828 297.481 85.5708 296.268 84.9468C295.072 84.3228 294.145 83.4735 293.486 82.3988C292.827 81.3068 292.498 80.0675 292.498 78.6808C292.498 77.2768 292.819 76.0375 293.46 74.9628C294.119 73.8708 295.011 73.0215 296.138 72.4148C297.265 71.7908 298.539 71.4788 299.96 71.4788C301.329 71.4788 302.56 71.7735 303.652 72.3628C304.761 72.9348 305.637 73.7668 306.278 74.8588C306.919 75.9335 307.24 77.2248 307.24 78.7328C307.24 78.8888 307.231 79.0708 307.214 79.2788C307.197 79.4695 307.179 79.6515 307.162 79.8248H295.8V77.4588H305.03L303.47 78.1608C303.47 77.4328 303.323 76.8001 303.028 76.2628C302.733 75.7255 302.326 75.3095 301.806 75.0148C301.286 74.7028 300.679 74.5468 299.986 74.5468C299.293 74.5468 298.677 74.7028 298.14 75.0148C297.62 75.3095 297.213 75.7341 296.918 76.2888C296.623 76.8261 296.476 77.4675 296.476 78.2128V78.8368C296.476 79.5995 296.641 80.2755 296.97 80.8648C297.317 81.4368 297.793 81.8788 298.4 82.1908C299.024 82.4855 299.752 82.6328 300.584 82.6328C301.329 82.6328 301.979 82.5201 302.534 82.2948C303.106 82.0695 303.626 81.7315 304.094 81.2808L306.252 83.6208C305.611 84.3488 304.805 84.9121 303.834 85.3108C302.863 85.6921 301.745 85.8828 300.48 85.8828ZM309.94 85.6748V71.6868H313.814V75.6388L313.268 74.4948C313.684 73.5068 314.352 72.7615 315.27 72.2588C316.189 71.7388 317.307 71.4788 318.624 71.4788V75.2228C318.451 75.2055 318.295 75.1968 318.156 75.1968C318.018 75.1795 317.87 75.1708 317.714 75.1708C316.605 75.1708 315.704 75.4915 315.01 76.1328C314.334 76.7568 313.996 77.7361 313.996 79.0708V85.6748H309.94ZM325.844 85.8828C324.648 85.8828 323.495 85.7441 322.386 85.4668C321.294 85.1721 320.427 84.8081 319.786 84.3748L321.138 81.4628C321.779 81.8615 322.533 82.1908 323.4 82.4508C324.284 82.6935 325.15 82.8148 326 82.8148C326.936 82.8148 327.594 82.7021 327.976 82.4768C328.374 82.2515 328.574 81.9395 328.574 81.5408C328.574 81.2115 328.418 80.9688 328.106 80.8128C327.811 80.6395 327.412 80.5095 326.91 80.4228C326.407 80.3361 325.852 80.2495 325.246 80.1628C324.656 80.0761 324.058 79.9635 323.452 79.8248C322.845 79.6688 322.29 79.4435 321.788 79.1488C321.285 78.8541 320.878 78.4555 320.566 77.9528C320.271 77.4501 320.124 76.8001 320.124 76.0028C320.124 75.1188 320.375 74.3388 320.878 73.6628C321.398 72.9868 322.143 72.4581 323.114 72.0768C324.084 71.6781 325.246 71.4788 326.598 71.4788C327.551 71.4788 328.522 71.5828 329.51 71.7908C330.498 71.9988 331.321 72.3021 331.98 72.7008L330.628 75.5868C329.952 75.1881 329.267 74.9195 328.574 74.7808C327.898 74.6248 327.239 74.5468 326.598 74.5468C325.696 74.5468 325.038 74.6681 324.622 74.9108C324.206 75.1535 323.998 75.4655 323.998 75.8468C323.998 76.1935 324.145 76.4535 324.44 76.6268C324.752 76.8001 325.159 76.9388 325.662 77.0428C326.164 77.1468 326.71 77.2421 327.3 77.3288C327.906 77.3981 328.513 77.5108 329.12 77.6668C329.726 77.8228 330.272 78.0481 330.758 78.3428C331.26 78.6201 331.668 79.0101 331.98 79.5128C332.292 79.9981 332.448 80.6395 332.448 81.4368C332.448 82.3035 332.188 83.0748 331.668 83.7508C331.148 84.4095 330.394 84.9295 329.406 85.3108C328.435 85.6921 327.248 85.8828 325.844 85.8828ZM347.643 85.9868C346.378 85.9868 345.121 85.8221 343.873 85.4928C342.643 85.1461 341.585 84.6608 340.701 84.0368L342.365 80.8128C343.059 81.3155 343.856 81.7141 344.757 82.0088C345.676 82.3035 346.603 82.4508 347.539 82.4508C348.597 82.4508 349.429 82.2428 350.035 81.8268C350.642 81.4108 350.945 80.8301 350.945 80.0848C350.945 79.6168 350.824 79.2008 350.581 78.8368C350.339 78.4728 349.905 78.1955 349.281 78.0048C348.675 77.8141 347.817 77.7188 346.707 77.7188H342.053L342.989 67.4748H354.091V70.8548H344.497L346.681 68.9308L346.031 76.2368L343.847 74.3128H347.695C349.498 74.3128 350.945 74.5641 352.037 75.0668C353.147 75.5521 353.953 76.2195 354.455 77.0688C354.958 77.9181 355.209 78.8801 355.209 79.9548C355.209 81.0295 354.941 82.0261 354.403 82.9448C353.866 83.8461 353.034 84.5828 351.907 85.1548C350.798 85.7095 349.377 85.9868 347.643 85.9868ZM373.408 85.8828C372.229 85.8828 371.198 85.6228 370.314 85.1028C369.43 84.5828 368.736 83.7941 368.234 82.7368C367.748 81.6621 367.506 80.3101 367.506 78.6808C367.506 77.0341 367.74 75.6821 368.208 74.6248C368.676 73.5675 369.352 72.7788 370.236 72.2588C371.12 71.7388 372.177 71.4788 373.408 71.4788C374.725 71.4788 375.904 71.7821 376.944 72.3888C378.001 72.9781 378.833 73.8101 379.44 74.8848C380.064 75.9595 380.376 77.2248 380.376 78.6808C380.376 80.1541 380.064 81.4281 379.44 82.5028C378.833 83.5775 378.001 84.4095 376.944 84.9988C375.904 85.5881 374.725 85.8828 373.408 85.8828ZM365.14 90.7188V71.6868H369.014V74.5468L368.936 78.7068L369.196 82.8408V90.7188H365.14ZM372.706 82.5548C373.382 82.5548 373.98 82.3988 374.5 82.0868C375.037 81.7748 375.462 81.3328 375.774 80.7608C376.103 80.1715 376.268 79.4781 376.268 78.6808C376.268 77.8661 376.103 77.1728 375.774 76.6008C375.462 76.0288 375.037 75.5868 374.5 75.2748C373.98 74.9628 373.382 74.8068 372.706 74.8068C372.03 74.8068 371.423 74.9628 370.886 75.2748C370.348 75.5868 369.924 76.0288 369.612 76.6008C369.3 77.1728 369.144 77.8661 369.144 78.6808C369.144 79.4781 369.3 80.1715 369.612 80.7608C369.924 81.3328 370.348 81.7748 370.886 82.0868C371.423 82.3988 372.03 82.5548 372.706 82.5548ZM390.033 85.8828C388.438 85.8828 387.034 85.5708 385.821 84.9468C384.625 84.3228 383.697 83.4735 383.039 82.3988C382.38 81.3068 382.051 80.0675 382.051 78.6808C382.051 77.2768 382.371 76.0375 383.013 74.9628C383.671 73.8708 384.564 73.0215 385.691 72.4148C386.817 71.7908 388.091 71.4788 389.513 71.4788C390.882 71.4788 392.113 71.7735 393.205 72.3628C394.314 72.9348 395.189 73.7668 395.831 74.8588C396.472 75.9335 396.793 77.2248 396.793 78.7328C396.793 78.8888 396.784 79.0708 396.767 79.2788C396.749 79.4695 396.732 79.6515 396.715 79.8248H385.353V77.4588H394.583L393.023 78.1608C393.023 77.4328 392.875 76.8001 392.581 76.2628C392.286 75.7255 391.879 75.3095 391.359 75.0148C390.839 74.7028 390.232 74.5468 389.539 74.5468C388.845 74.5468 388.23 74.7028 387.693 75.0148C387.173 75.3095 386.765 75.7341 386.471 76.2888C386.176 76.8261 386.029 77.4675 386.029 78.2128V78.8368C386.029 79.5995 386.193 80.2755 386.523 80.8648C386.869 81.4368 387.346 81.8788 387.953 82.1908C388.577 82.4855 389.305 82.6328 390.137 82.6328C390.882 82.6328 391.532 82.5201 392.087 82.2948C392.659 82.0695 393.179 81.7315 393.647 81.2808L395.805 83.6208C395.163 84.3488 394.357 84.9121 393.387 85.3108C392.416 85.6921 391.298 85.8828 390.033 85.8828ZM406.149 85.8828C404.658 85.8828 403.332 85.5708 402.171 84.9468C401.027 84.3228 400.117 83.4735 399.441 82.3988C398.782 81.3068 398.453 80.0675 398.453 78.6808C398.453 77.2768 398.782 76.0375 399.441 74.9628C400.117 73.8708 401.027 73.0215 402.171 72.4148C403.332 71.7908 404.658 71.4788 406.149 71.4788C407.622 71.4788 408.94 71.7908 410.101 72.4148C411.262 73.0215 412.172 73.8621 412.831 74.9368C413.49 76.0115 413.819 77.2595 413.819 78.6808C413.819 80.0675 413.49 81.3068 412.831 82.3988C412.172 83.4735 411.262 84.3228 410.101 84.9468C408.94 85.5708 407.622 85.8828 406.149 85.8828ZM406.149 82.5548C406.825 82.5548 407.432 82.3988 407.969 82.0868C408.506 81.7748 408.931 81.3328 409.243 80.7608C409.555 80.1715 409.711 79.4781 409.711 78.6808C409.711 77.8661 409.555 77.1728 409.243 76.6008C408.931 76.0288 408.506 75.5868 407.969 75.2748C407.432 74.9628 406.825 74.8068 406.149 74.8068C405.473 74.8068 404.866 74.9628 404.329 75.2748C403.792 75.5868 403.358 76.0288 403.029 76.6008C402.717 77.1728 402.561 77.8661 402.561 78.6808C402.561 79.4781 402.717 80.1715 403.029 80.7608C403.358 81.3328 403.792 81.7748 404.329 82.0868C404.866 82.3988 405.473 82.5548 406.149 82.5548ZM424.798 85.8828C423.62 85.8828 422.588 85.6228 421.704 85.1028C420.82 84.5828 420.127 83.7941 419.624 82.7368C419.139 81.6621 418.896 80.3101 418.896 78.6808C418.896 77.0341 419.13 75.6821 419.598 74.6248C420.066 73.5675 420.742 72.7788 421.626 72.2588C422.51 71.7388 423.568 71.4788 424.798 71.4788C426.116 71.4788 427.294 71.7821 428.334 72.3888C429.392 72.9781 430.224 73.8101 430.83 74.8848C431.454 75.9595 431.766 77.2248 431.766 78.6808C431.766 80.1541 431.454 81.4281 430.83 82.5028C430.224 83.5775 429.392 84.4095 428.334 84.9988C427.294 85.5881 426.116 85.8828 424.798 85.8828ZM416.53 90.7188V71.6868H420.404V74.5468L420.326 78.7068L420.586 82.8408V90.7188H416.53ZM424.096 82.5548C424.772 82.5548 425.37 82.3988 425.89 82.0868C426.428 81.7748 426.852 81.3328 427.164 80.7608C427.494 80.1715 427.658 79.4781 427.658 78.6808C427.658 77.8661 427.494 77.1728 427.164 76.6008C426.852 76.0288 426.428 75.5868 425.89 75.2748C425.37 74.9628 424.772 74.8068 424.096 74.8068C423.42 74.8068 422.814 74.9628 422.276 75.2748C421.739 75.5868 421.314 76.0288 421.002 76.6008C420.69 77.1728 420.534 77.8661 420.534 78.6808C420.534 79.4781 420.69 80.1715 421.002 80.7608C421.314 81.3328 421.739 81.7748 422.276 82.0868C422.814 82.3988 423.42 82.5548 424.096 82.5548ZM434.481 85.6748V66.3828H438.537V85.6748H434.481ZM449.244 85.8828C447.649 85.8828 446.245 85.5708 445.032 84.9468C443.836 84.3228 442.908 83.4735 442.25 82.3988C441.591 81.3068 441.262 80.0675 441.262 78.6808C441.262 77.2768 441.582 76.0375 442.224 74.9628C442.882 73.8708 443.775 73.0215 444.902 72.4148C446.028 71.7908 447.302 71.4788 448.724 71.4788C450.093 71.4788 451.324 71.7735 452.416 72.3628C453.525 72.9348 454.4 73.7668 455.042 74.8588C455.683 75.9335 456.004 77.2248 456.004 78.7328C456.004 78.8888 455.995 79.0708 455.978 79.2788C455.96 79.4695 455.943 79.6515 455.926 79.8248H444.564V77.4588H453.794L452.234 78.1608C452.234 77.4328 452.086 76.8001 451.792 76.2628C451.497 75.7255 451.09 75.3095 450.57 75.0148C450.05 74.7028 449.443 74.5468 448.75 74.5468C448.056 74.5468 447.441 74.7028 446.904 75.0148C446.384 75.3095 445.976 75.7341 445.682 76.2888C445.387 76.8261 445.24 77.4675 445.24 78.2128V78.8368C445.24 79.5995 445.404 80.2755 445.734 80.8648C446.08 81.4368 446.557 81.8788 447.164 82.1908C447.788 82.4855 448.516 82.6328 449.348 82.6328C450.093 82.6328 450.743 82.5201 451.298 82.2948C451.87 82.0695 452.39 81.7315 452.858 81.2808L455.016 83.6208C454.374 84.3488 453.568 84.9121 452.598 85.3108C451.627 85.6921 450.509 85.8828 449.244 85.8828ZM466.561 85.6748V71.3748C466.561 69.7975 467.029 68.5408 467.965 67.6048C468.901 66.6515 470.236 66.1748 471.969 66.1748C472.559 66.1748 473.122 66.2355 473.659 66.3568C474.214 66.4781 474.682 66.6688 475.063 66.9288L473.997 69.8668C473.772 69.7108 473.521 69.5895 473.243 69.5028C472.966 69.4161 472.671 69.3728 472.359 69.3728C471.77 69.3728 471.311 69.5461 470.981 69.8928C470.669 70.2221 470.513 70.7248 470.513 71.4008V72.7008L470.617 74.4428V85.6748H466.561ZM464.403 75.1188V71.9988H474.101V75.1188H464.403ZM482.6 85.8828C481.11 85.8828 479.784 85.5708 478.622 84.9468C477.478 84.3228 476.568 83.4735 475.892 82.3988C475.234 81.3068 474.904 80.0675 474.904 78.6808C474.904 77.2768 475.234 76.0375 475.892 74.9628C476.568 73.8708 477.478 73.0215 478.622 72.4148C479.784 71.7908 481.11 71.4788 482.6 71.4788C484.074 71.4788 485.391 71.7908 486.552 72.4148C487.714 73.0215 488.624 73.8621 489.282 74.9368C489.941 76.0115 490.27 77.2595 490.27 78.6808C490.27 80.0675 489.941 81.3068 489.282 82.3988C488.624 83.4735 487.714 84.3228 486.552 84.9468C485.391 85.5708 484.074 85.8828 482.6 85.8828ZM482.6 82.5548C483.276 82.5548 483.883 82.3988 484.42 82.0868C484.958 81.7748 485.382 81.3328 485.694 80.7608C486.006 80.1715 486.162 79.4781 486.162 78.6808C486.162 77.8661 486.006 77.1728 485.694 76.6008C485.382 76.0288 484.958 75.5868 484.42 75.2748C483.883 74.9628 483.276 74.8068 482.6 74.8068C481.924 74.8068 481.318 74.9628 480.78 75.2748C480.243 75.5868 479.81 76.0288 479.48 76.6008C479.168 77.1728 479.012 77.8661 479.012 78.6808C479.012 79.4781 479.168 80.1715 479.48 80.7608C479.81 81.3328 480.243 81.7748 480.78 82.0868C481.318 82.3988 481.924 82.5548 482.6 82.5548ZM492.981 85.6748V71.6868H496.855V75.6388L496.309 74.4948C496.725 73.5068 497.393 72.7615 498.311 72.2588C499.23 71.7388 500.348 71.4788 501.665 71.4788V75.2228C501.492 75.2055 501.336 75.1968 501.197 75.1968C501.059 75.1795 500.911 75.1708 500.755 75.1708C499.646 75.1708 498.745 75.4915 498.051 76.1328C497.375 76.7568 497.037 77.7361 497.037 79.0708V85.6748H492.981ZM513.492 85.6748V69.0348L515.312 70.8548H509.852V67.4748H517.704V85.6748H513.492ZM19.8915 103.479C21.0008 103.479 21.9801 103.704 22.8295 104.155C23.6961 104.588 24.3721 105.264 24.8575 106.183C25.3601 107.084 25.6115 108.245 25.6115 109.667V117.675H21.5555V110.291C21.5555 109.164 21.3215 108.332 20.8535 107.795C20.3855 107.257 19.7268 106.989 18.8775 106.989C18.2881 106.989 17.7595 107.127 17.2915 107.405C16.8235 107.665 16.4595 108.063 16.1995 108.601C15.9395 109.138 15.8095 109.823 15.8095 110.655V117.675H11.7535V110.291C11.7535 109.164 11.5195 108.332 11.0515 107.795C10.6008 107.257 9.9508 106.989 9.10147 106.989C8.51214 106.989 7.98347 107.127 7.51547 107.405C7.04747 107.665 6.68347 108.063 6.42347 108.601C6.16347 109.138 6.03347 109.823 6.03347 110.655V117.675H1.97747V103.687H5.85147V107.509L5.12347 106.391C5.6088 105.437 6.29347 104.718 7.17747 104.233C8.0788 103.73 9.10147 103.479 10.2455 103.479C11.5281 103.479 12.6461 103.808 13.5995 104.467C14.5701 105.108 15.2115 106.096 15.5235 107.431L14.0935 107.041C14.5615 105.949 15.3068 105.082 16.3295 104.441C17.3695 103.799 18.5568 103.479 19.8915 103.479ZM36.0046 117.883C34.5139 117.883 33.1879 117.571 32.0266 116.947C30.8826 116.323 29.9726 115.473 29.2966 114.399C28.6379 113.307 28.3086 112.067 28.3086 110.681C28.3086 109.277 28.6379 108.037 29.2966 106.963C29.9726 105.871 30.8826 105.021 32.0266 104.415C33.1879 103.791 34.5139 103.479 36.0046 103.479C37.4779 103.479 38.7952 103.791 39.9566 104.415C41.1179 105.021 42.0279 105.862 42.6866 106.937C43.3452 108.011 43.6746 109.259 43.6746 110.681C43.6746 112.067 43.3452 113.307 42.6866 114.399C42.0279 115.473 41.1179 116.323 39.9566 116.947C38.7952 117.571 37.4779 117.883 36.0046 117.883ZM36.0046 114.555C36.6806 114.555 37.2872 114.399 37.8246 114.087C38.3619 113.775 38.7866 113.333 39.0986 112.761C39.4106 112.171 39.5666 111.478 39.5666 110.681C39.5666 109.866 39.4106 109.173 39.0986 108.601C38.7866 108.029 38.3619 107.587 37.8246 107.275C37.2872 106.963 36.6806 106.807 36.0046 106.807C35.3286 106.807 34.7219 106.963 34.1846 107.275C33.6472 107.587 33.2139 108.029 32.8846 108.601C32.5726 109.173 32.4166 109.866 32.4166 110.681C32.4166 111.478 32.5726 112.171 32.8846 112.761C33.2139 113.333 33.6472 113.775 34.1846 114.087C34.7219 114.399 35.3286 114.555 36.0046 114.555ZM54.8877 103.479C55.997 103.479 56.985 103.704 57.8517 104.155C58.7357 104.588 59.429 105.264 59.9317 106.183C60.4343 107.084 60.6857 108.245 60.6857 109.667V117.675H56.6297V110.291C56.6297 109.164 56.3783 108.332 55.8757 107.795C55.3903 107.257 54.697 106.989 53.7957 106.989C53.1543 106.989 52.5737 107.127 52.0537 107.405C51.551 107.665 51.1523 108.072 50.8577 108.627C50.5803 109.181 50.4417 109.892 50.4417 110.759V117.675H46.3857V103.687H50.2597V107.561L49.5317 106.391C50.0343 105.455 50.7537 104.735 51.6897 104.233C52.6257 103.73 53.6917 103.479 54.8877 103.479ZM70.0822 117.883C68.4356 117.883 67.1529 117.467 66.2342 116.635C65.3156 115.785 64.8562 114.529 64.8562 112.865V100.593H68.9122V112.813C68.9122 113.402 69.0682 113.861 69.3802 114.191C69.6922 114.503 70.1169 114.659 70.6542 114.659C71.2956 114.659 71.8416 114.485 72.2922 114.139L73.3842 116.999C72.9682 117.293 72.4656 117.519 71.8762 117.675C71.3042 117.813 70.7062 117.883 70.0822 117.883ZM62.6982 107.119V103.999H72.3962V107.119H62.6982ZM84.1631 103.479C85.2724 103.479 86.2604 103.704 87.1271 104.155C88.0111 104.588 88.7044 105.264 89.2071 106.183C89.7097 107.084 89.9611 108.245 89.9611 109.667V117.675H85.9051V110.291C85.9051 109.164 85.6537 108.332 85.1511 107.795C84.6657 107.257 83.9724 106.989 83.0711 106.989C82.4297 106.989 81.8491 107.127 81.3291 107.405C80.8264 107.665 80.4277 108.072 80.1331 108.627C79.8557 109.181 79.7171 109.892 79.7171 110.759V117.675H75.6611V98.3828H79.7171V107.561L78.8071 106.391C79.3097 105.455 80.0291 104.735 80.9651 104.233C81.9011 103.73 82.9671 103.479 84.1631 103.479ZM109.581 117.675V114.945L109.321 114.347V109.459C109.321 108.592 109.052 107.916 108.515 107.431C107.995 106.945 107.189 106.703 106.097 106.703C105.352 106.703 104.615 106.824 103.887 107.067C103.176 107.292 102.57 107.604 102.067 108.003L100.611 105.169C101.374 104.631 102.292 104.215 103.367 103.921C104.442 103.626 105.534 103.479 106.643 103.479C108.775 103.479 110.43 103.981 111.609 104.987C112.788 105.992 113.377 107.561 113.377 109.693V117.675H109.581ZM105.317 117.883C104.225 117.883 103.289 117.701 102.509 117.337C101.729 116.955 101.131 116.444 100.715 115.803C100.299 115.161 100.091 114.442 100.091 113.645C100.091 112.813 100.29 112.085 100.689 111.461C101.105 110.837 101.755 110.351 102.639 110.005C103.523 109.641 104.676 109.459 106.097 109.459H109.815V111.825H106.539C105.586 111.825 104.927 111.981 104.563 112.293C104.216 112.605 104.043 112.995 104.043 113.463C104.043 113.983 104.242 114.399 104.641 114.711C105.057 115.005 105.62 115.153 106.331 115.153C107.007 115.153 107.614 114.997 108.151 114.685C108.688 114.355 109.078 113.879 109.321 113.255L109.945 115.127C109.65 116.028 109.113 116.713 108.333 117.181C107.553 117.649 106.548 117.883 105.317 117.883ZM125.55 103.479C126.659 103.479 127.647 103.704 128.514 104.155C129.398 104.588 130.091 105.264 130.594 106.183C131.096 107.084 131.348 108.245 131.348 109.667V117.675H127.292V110.291C127.292 109.164 127.04 108.332 126.538 107.795C126.052 107.257 125.359 106.989 124.458 106.989C123.816 106.989 123.236 107.127 122.716 107.405C122.213 107.665 121.814 108.072 121.52 108.627C121.242 109.181 121.104 109.892 121.104 110.759V117.675H117.048V103.687H120.922V107.561L120.194 106.391C120.696 105.455 121.416 104.735 122.352 104.233C123.288 103.73 124.354 103.479 125.55 103.479ZM141.132 117.883C139.815 117.883 138.627 117.588 137.57 116.999C136.513 116.392 135.672 115.551 135.048 114.477C134.441 113.402 134.138 112.137 134.138 110.681C134.138 109.207 134.441 107.933 135.048 106.859C135.672 105.784 136.513 104.952 137.57 104.363C138.627 103.773 139.815 103.479 141.132 103.479C142.311 103.479 143.342 103.739 144.226 104.259C145.11 104.779 145.795 105.567 146.28 106.625C146.765 107.682 147.008 109.034 147.008 110.681C147.008 112.31 146.774 113.662 146.306 114.737C145.838 115.794 145.162 116.583 144.278 117.103C143.411 117.623 142.363 117.883 141.132 117.883ZM141.834 114.555C142.493 114.555 143.091 114.399 143.628 114.087C144.165 113.775 144.59 113.333 144.902 112.761C145.231 112.171 145.396 111.478 145.396 110.681C145.396 109.866 145.231 109.173 144.902 108.601C144.59 108.029 144.165 107.587 143.628 107.275C143.091 106.963 142.493 106.807 141.834 106.807C141.158 106.807 140.551 106.963 140.014 107.275C139.477 107.587 139.043 108.029 138.714 108.601C138.402 109.173 138.246 109.866 138.246 110.681C138.246 111.478 138.402 112.171 138.714 112.761C139.043 113.333 139.477 113.775 140.014 114.087C140.551 114.399 141.158 114.555 141.834 114.555ZM145.5 117.675V114.815L145.578 110.655L145.318 106.521V98.3828H149.374V117.675H145.5ZM167.251 117.883C165.743 117.883 164.4 117.579 163.221 116.973C162.042 116.349 161.115 115.491 160.439 114.399C159.78 113.307 159.451 112.067 159.451 110.681C159.451 109.277 159.78 108.037 160.439 106.963C161.115 105.871 162.042 105.021 163.221 104.415C164.4 103.791 165.743 103.479 167.251 103.479C168.724 103.479 170.007 103.791 171.099 104.415C172.191 105.021 172.997 105.897 173.517 107.041L170.371 108.731C170.007 108.072 169.548 107.587 168.993 107.275C168.456 106.963 167.866 106.807 167.225 106.807C166.532 106.807 165.908 106.963 165.353 107.275C164.798 107.587 164.356 108.029 164.027 108.601C163.715 109.173 163.559 109.866 163.559 110.681C163.559 111.495 163.715 112.189 164.027 112.761C164.356 113.333 164.798 113.775 165.353 114.087C165.908 114.399 166.532 114.555 167.225 114.555C167.866 114.555 168.456 114.407 168.993 114.113C169.548 113.801 170.007 113.307 170.371 112.631L173.517 114.347C172.997 115.473 172.191 116.349 171.099 116.973C170.007 117.579 168.724 117.883 167.251 117.883ZM184.432 117.675V114.945L184.172 114.347V109.459C184.172 108.592 183.904 107.916 183.366 107.431C182.846 106.945 182.04 106.703 180.948 106.703C180.203 106.703 179.466 106.824 178.738 107.067C178.028 107.292 177.421 107.604 176.918 108.003L175.462 105.169C176.225 104.631 177.144 104.215 178.218 103.921C179.293 103.626 180.385 103.479 181.494 103.479C183.626 103.479 185.282 103.981 186.46 104.987C187.639 105.992 188.228 107.561 188.228 109.693V117.675H184.432ZM180.168 117.883C179.076 117.883 178.14 117.701 177.36 117.337C176.58 116.955 175.982 116.444 175.566 115.803C175.15 115.161 174.942 114.442 174.942 113.645C174.942 112.813 175.142 112.085 175.54 111.461C175.956 110.837 176.606 110.351 177.49 110.005C178.374 109.641 179.527 109.459 180.948 109.459H184.666V111.825H181.39C180.437 111.825 179.778 111.981 179.414 112.293C179.068 112.605 178.894 112.995 178.894 113.463C178.894 113.983 179.094 114.399 179.492 114.711C179.908 115.005 180.472 115.153 181.182 115.153C181.858 115.153 182.465 114.997 183.002 114.685C183.54 114.355 183.93 113.879 184.172 113.255L184.796 115.127C184.502 116.028 183.964 116.713 183.184 117.181C182.404 117.649 181.399 117.883 180.168 117.883ZM200.401 103.479C201.511 103.479 202.499 103.704 203.365 104.155C204.249 104.588 204.943 105.264 205.445 106.183C205.948 107.084 206.199 108.245 206.199 109.667V117.675H202.143V110.291C202.143 109.164 201.892 108.332 201.389 107.795C200.904 107.257 200.211 106.989 199.309 106.989C198.668 106.989 198.087 107.127 197.567 107.405C197.065 107.665 196.666 108.072 196.371 108.627C196.094 109.181 195.955 109.892 195.955 110.759V117.675H191.899V103.687H195.773V107.561L195.045 106.391C195.548 105.455 196.267 104.735 197.203 104.233C198.139 103.73 199.205 103.479 200.401 103.479ZM225.507 117.883C224.277 117.883 223.219 117.623 222.335 117.103C221.451 116.583 220.775 115.794 220.307 114.737C219.839 113.662 219.605 112.31 219.605 110.681C219.605 109.034 219.848 107.682 220.333 106.625C220.836 105.567 221.529 104.779 222.413 104.259C223.297 103.739 224.329 103.479 225.507 103.479C226.825 103.479 228.003 103.773 229.043 104.363C230.101 104.952 230.933 105.784 231.539 106.859C232.163 107.933 232.475 109.207 232.475 110.681C232.475 112.137 232.163 113.402 231.539 114.477C230.933 115.551 230.101 116.392 229.043 116.999C228.003 117.588 226.825 117.883 225.507 117.883ZM217.239 117.675V98.3828H221.295V106.521L221.035 110.655L221.113 114.815V117.675H217.239ZM224.805 114.555C225.481 114.555 226.079 114.399 226.599 114.087C227.137 113.775 227.561 113.333 227.873 112.761C228.203 112.171 228.367 111.478 228.367 110.681C228.367 109.866 228.203 109.173 227.873 108.601C227.561 108.029 227.137 107.587 226.599 107.275C226.079 106.963 225.481 106.807 224.805 106.807C224.129 106.807 223.523 106.963 222.985 107.275C222.448 107.587 222.023 108.029 221.711 108.601C221.399 109.173 221.243 109.866 221.243 110.681C221.243 111.478 221.399 112.171 221.711 112.761C222.023 113.333 222.448 113.775 222.985 114.087C223.523 114.399 224.129 114.555 224.805 114.555ZM242.132 117.883C240.538 117.883 239.134 117.571 237.92 116.947C236.724 116.323 235.797 115.473 235.138 114.399C234.48 113.307 234.15 112.067 234.15 110.681C234.15 109.277 234.471 108.037 235.112 106.963C235.771 105.871 236.664 105.021 237.79 104.415C238.917 103.791 240.191 103.479 241.612 103.479C242.982 103.479 244.212 103.773 245.304 104.363C246.414 104.935 247.289 105.767 247.93 106.859C248.572 107.933 248.892 109.225 248.892 110.733C248.892 110.889 248.884 111.071 248.866 111.279C248.849 111.469 248.832 111.651 248.814 111.825H237.452V109.459H246.682L245.122 110.161C245.122 109.433 244.975 108.8 244.68 108.263C244.386 107.725 243.978 107.309 243.458 107.015C242.938 106.703 242.332 106.547 241.638 106.547C240.945 106.547 240.33 106.703 239.792 107.015C239.272 107.309 238.865 107.734 238.57 108.289C238.276 108.826 238.128 109.467 238.128 110.213V110.837C238.128 111.599 238.293 112.275 238.622 112.865C238.969 113.437 239.446 113.879 240.052 114.191C240.676 114.485 241.404 114.633 242.236 114.633C242.982 114.633 243.632 114.52 244.186 114.295C244.758 114.069 245.278 113.731 245.746 113.281L247.904 115.621C247.263 116.349 246.457 116.912 245.486 117.311C244.516 117.692 243.398 117.883 242.132 117.883ZM258.956 117.675V103.687H262.83V107.639L262.284 106.495C262.7 105.507 263.367 104.761 264.286 104.259C265.205 103.739 266.323 103.479 267.64 103.479V107.223C267.467 107.205 267.311 107.197 267.172 107.197C267.033 107.179 266.886 107.171 266.73 107.171C265.621 107.171 264.719 107.491 264.026 108.133C263.35 108.757 263.012 109.736 263.012 111.071V117.675H258.956ZM276.867 117.883C275.272 117.883 273.868 117.571 272.655 116.947C271.459 116.323 270.531 115.473 269.873 114.399C269.214 113.307 268.885 112.067 268.885 110.681C268.885 109.277 269.205 108.037 269.847 106.963C270.505 105.871 271.398 105.021 272.525 104.415C273.651 103.791 274.925 103.479 276.347 103.479C277.716 103.479 278.947 103.773 280.039 104.363C281.148 104.935 282.023 105.767 282.665 106.859C283.306 107.933 283.627 109.225 283.627 110.733C283.627 110.889 283.618 111.071 283.601 111.279C283.583 111.469 283.566 111.651 283.549 111.825H272.187V109.459H281.417L279.857 110.161C279.857 109.433 279.709 108.8 279.415 108.263C279.12 107.725 278.713 107.309 278.193 107.015C277.673 106.703 277.066 106.547 276.373 106.547C275.679 106.547 275.064 106.703 274.527 107.015C274.007 107.309 273.599 107.734 273.305 108.289C273.01 108.826 272.863 109.467 272.863 110.213V110.837C272.863 111.599 273.027 112.275 273.357 112.865C273.703 113.437 274.18 113.879 274.787 114.191C275.411 114.485 276.139 114.633 276.971 114.633C277.716 114.633 278.366 114.52 278.921 114.295C279.493 114.069 280.013 113.731 280.481 113.281L282.639 115.621C281.997 116.349 281.191 116.912 280.221 117.311C279.25 117.692 278.132 117.883 276.867 117.883ZM294.829 103.479C295.938 103.479 296.926 103.704 297.793 104.155C298.677 104.588 299.37 105.264 299.873 106.183C300.376 107.084 300.627 108.245 300.627 109.667V117.675H296.571V110.291C296.571 109.164 296.32 108.332 295.817 107.795C295.332 107.257 294.638 106.989 293.737 106.989C293.096 106.989 292.515 107.127 291.995 107.405C291.492 107.665 291.094 108.072 290.799 108.627C290.522 109.181 290.383 109.892 290.383 110.759V117.675H286.327V103.687H290.201V107.561L289.473 106.391C289.976 105.455 290.695 104.735 291.631 104.233C292.567 103.73 293.633 103.479 294.829 103.479ZM311.347 117.883C309.753 117.883 308.349 117.571 307.135 116.947C305.939 116.323 305.012 115.473 304.353 114.399C303.695 113.307 303.365 112.067 303.365 110.681C303.365 109.277 303.686 108.037 304.327 106.963C304.986 105.871 305.879 105.021 307.005 104.415C308.132 103.791 309.406 103.479 310.827 103.479C312.197 103.479 313.427 103.773 314.519 104.363C315.629 104.935 316.504 105.767 317.145 106.859C317.787 107.933 318.107 109.225 318.107 110.733C318.107 110.889 318.099 111.071 318.081 111.279C318.064 111.469 318.047 111.651 318.029 111.825H306.667V109.459H315.897L314.337 110.161C314.337 109.433 314.19 108.8 313.895 108.263C313.601 107.725 313.193 107.309 312.673 107.015C312.153 106.703 311.547 106.547 310.853 106.547C310.16 106.547 309.545 106.703 309.007 107.015C308.487 107.309 308.08 107.734 307.785 108.289C307.491 108.826 307.343 109.467 307.343 110.213V110.837C307.343 111.599 307.508 112.275 307.837 112.865C308.184 113.437 308.661 113.879 309.267 114.191C309.891 114.485 310.619 114.633 311.451 114.633C312.197 114.633 312.847 114.52 313.401 114.295C313.973 114.069 314.493 113.731 314.961 113.281L317.119 115.621C316.478 116.349 315.672 116.912 314.701 117.311C313.731 117.692 312.613 117.883 311.347 117.883ZM323.752 117.675L318.708 103.687H322.53L326.716 115.725H324.896L329.264 103.687H332.696L336.934 115.725H335.114L339.43 103.687H343.018L337.948 117.675H334.022L330.304 107.353H331.5L327.652 117.675H323.752ZM351.464 117.883C349.87 117.883 348.466 117.571 347.252 116.947C346.056 116.323 345.129 115.473 344.47 114.399C343.812 113.307 343.482 112.067 343.482 110.681C343.482 109.277 343.803 108.037 344.444 106.963C345.103 105.871 345.996 105.021 347.122 104.415C348.249 103.791 349.523 103.479 350.944 103.479C352.314 103.479 353.544 103.773 354.636 104.363C355.746 104.935 356.621 105.767 357.262 106.859C357.904 107.933 358.224 109.225 358.224 110.733C358.224 110.889 358.216 111.071 358.198 111.279C358.181 111.469 358.164 111.651 358.146 111.825H346.784V109.459H356.014L354.454 110.161C354.454 109.433 354.307 108.8 354.012 108.263C353.718 107.725 353.31 107.309 352.79 107.015C352.27 106.703 351.664 106.547 350.97 106.547C350.277 106.547 349.662 106.703 349.124 107.015C348.604 107.309 348.197 107.734 347.902 108.289C347.608 108.826 347.46 109.467 347.46 110.213V110.837C347.46 111.599 347.625 112.275 347.954 112.865C348.301 113.437 348.778 113.879 349.384 114.191C350.008 114.485 350.736 114.633 351.568 114.633C352.314 114.633 352.964 114.52 353.518 114.295C354.09 114.069 354.61 113.731 355.078 113.281L357.236 115.621C356.595 116.349 355.789 116.912 354.818 117.311C353.848 117.692 352.73 117.883 351.464 117.883ZM366.931 117.883C365.613 117.883 364.426 117.588 363.369 116.999C362.311 116.392 361.471 115.551 360.847 114.477C360.24 113.402 359.937 112.137 359.937 110.681C359.937 109.207 360.24 107.933 360.847 106.859C361.471 105.784 362.311 104.952 363.369 104.363C364.426 103.773 365.613 103.479 366.931 103.479C368.109 103.479 369.141 103.739 370.025 104.259C370.909 104.779 371.593 105.567 372.079 106.625C372.564 107.682 372.807 109.034 372.807 110.681C372.807 112.31 372.573 113.662 372.105 114.737C371.637 115.794 370.961 116.583 370.077 117.103C369.21 117.623 368.161 117.883 366.931 117.883ZM367.633 114.555C368.291 114.555 368.889 114.399 369.427 114.087C369.964 113.775 370.389 113.333 370.701 112.761C371.03 112.171 371.195 111.478 371.195 110.681C371.195 109.866 371.03 109.173 370.701 108.601C370.389 108.029 369.964 107.587 369.427 107.275C368.889 106.963 368.291 106.807 367.633 106.807C366.957 106.807 366.35 106.963 365.813 107.275C365.275 107.587 364.842 108.029 364.513 108.601C364.201 109.173 364.045 109.866 364.045 110.681C364.045 111.478 364.201 112.171 364.513 112.761C364.842 113.333 365.275 113.775 365.813 114.087C366.35 114.399 366.957 114.555 367.633 114.555ZM371.299 117.675V114.815L371.377 110.655L371.117 106.521V98.3828H375.173V117.675H371.299ZM404.204 103.479C405.313 103.479 406.293 103.704 407.142 104.155C408.009 104.588 408.685 105.264 409.17 106.183C409.673 107.084 409.924 108.245 409.924 109.667V117.675H405.868V110.291C405.868 109.164 405.634 108.332 405.166 107.795C404.698 107.257 404.039 106.989 403.19 106.989C402.601 106.989 402.072 107.127 401.604 107.405C401.136 107.665 400.772 108.063 400.512 108.601C400.252 109.138 400.122 109.823 400.122 110.655V117.675H396.066V110.291C396.066 109.164 395.832 108.332 395.364 107.795C394.913 107.257 394.263 106.989 393.414 106.989C392.825 106.989 392.296 107.127 391.828 107.405C391.36 107.665 390.996 108.063 390.736 108.601C390.476 109.138 390.346 109.823 390.346 110.655V117.675H386.29V103.687H390.164V107.509L389.436 106.391C389.921 105.437 390.606 104.718 391.49 104.233C392.391 103.73 393.414 103.479 394.558 103.479C395.841 103.479 396.959 103.808 397.912 104.467C398.883 105.108 399.524 106.096 399.836 107.431L398.406 107.041C398.874 105.949 399.619 105.082 400.642 104.441C401.682 103.799 402.869 103.479 404.204 103.479ZM420.317 117.883C418.826 117.883 417.5 117.571 416.339 116.947C415.195 116.323 414.285 115.473 413.609 114.399C412.95 113.307 412.621 112.067 412.621 110.681C412.621 109.277 412.95 108.037 413.609 106.963C414.285 105.871 415.195 105.021 416.339 104.415C417.5 103.791 418.826 103.479 420.317 103.479C421.79 103.479 423.108 103.791 424.269 104.415C425.43 105.021 426.34 105.862 426.999 106.937C427.658 108.011 427.987 109.259 427.987 110.681C427.987 112.067 427.658 113.307 426.999 114.399C426.34 115.473 425.43 116.323 424.269 116.947C423.108 117.571 421.79 117.883 420.317 117.883ZM420.317 114.555C420.993 114.555 421.6 114.399 422.137 114.087C422.674 113.775 423.099 113.333 423.411 112.761C423.723 112.171 423.879 111.478 423.879 110.681C423.879 109.866 423.723 109.173 423.411 108.601C423.099 108.029 422.674 107.587 422.137 107.275C421.6 106.963 420.993 106.807 420.317 106.807C419.641 106.807 419.034 106.963 418.497 107.275C417.96 107.587 417.526 108.029 417.197 108.601C416.885 109.173 416.729 109.866 416.729 110.681C416.729 111.478 416.885 112.171 417.197 112.761C417.526 113.333 417.96 113.775 418.497 114.087C419.034 114.399 419.641 114.555 420.317 114.555ZM439.2 103.479C440.31 103.479 441.298 103.704 442.164 104.155C443.048 104.588 443.742 105.264 444.244 106.183C444.747 107.084 444.998 108.245 444.998 109.667V117.675H440.942V110.291C440.942 109.164 440.691 108.332 440.188 107.795C439.703 107.257 439.01 106.989 438.108 106.989C437.467 106.989 436.886 107.127 436.366 107.405C435.864 107.665 435.465 108.072 435.17 108.627C434.893 109.181 434.754 109.892 434.754 110.759V117.675H430.698V103.687H434.572V107.561L433.844 106.391C434.347 105.455 435.066 104.735 436.002 104.233C436.938 103.73 438.004 103.479 439.2 103.479ZM454.395 117.883C452.748 117.883 451.465 117.467 450.547 116.635C449.628 115.785 449.169 114.529 449.169 112.865V100.593H453.225V112.813C453.225 113.402 453.381 113.861 453.693 114.191C454.005 114.503 454.429 114.659 454.967 114.659C455.608 114.659 456.154 114.485 456.605 114.139L457.697 116.999C457.281 117.293 456.778 117.519 456.189 117.675C455.617 117.813 455.019 117.883 454.395 117.883ZM447.011 107.119V103.999H456.709V107.119H447.011ZM468.476 103.479C469.585 103.479 470.573 103.704 471.44 104.155C472.324 104.588 473.017 105.264 473.52 106.183C474.022 107.084 474.274 108.245 474.274 109.667V117.675H470.218V110.291C470.218 109.164 469.966 108.332 469.464 107.795C468.978 107.257 468.285 106.989 467.384 106.989C466.742 106.989 466.162 107.127 465.642 107.405C465.139 107.665 464.74 108.072 464.446 108.627C464.168 109.181 464.03 109.892 464.03 110.759V117.675H459.974V98.3828H464.03V107.561L463.12 106.391C463.622 105.455 464.342 104.735 465.278 104.233C466.214 103.73 467.28 103.479 468.476 103.479ZM477.95 117.675V98.3828H482.006V117.675H477.95ZM487.538 122.927C486.81 122.927 486.091 122.814 485.38 122.589C484.67 122.363 484.089 122.051 483.638 121.653L485.12 118.767C485.432 119.044 485.788 119.261 486.186 119.417C486.602 119.573 487.01 119.651 487.408 119.651C487.98 119.651 488.431 119.512 488.76 119.235C489.107 118.975 489.419 118.533 489.696 117.909L490.424 116.193L490.736 115.751L495.754 103.687H499.654L493.336 118.533C492.886 119.659 492.366 120.543 491.776 121.185C491.204 121.826 490.563 122.277 489.852 122.537C489.159 122.797 488.388 122.927 487.538 122.927ZM489.93 118.221L483.69 103.687H487.876L492.712 115.387L489.93 118.221ZM502.006 117.883C501.312 117.883 500.714 117.649 500.212 117.181C499.726 116.695 499.484 116.08 499.484 115.335C499.484 114.589 499.726 113.991 500.212 113.541C500.714 113.073 501.312 112.839 502.006 112.839C502.716 112.839 503.314 113.073 503.8 113.541C504.285 113.991 504.528 114.589 504.528 115.335C504.528 116.08 504.285 116.695 503.8 117.181C503.314 117.649 502.716 117.883 502.006 117.883Z" fill="white"/>
<path d="M8.24347 181.987C6.78747 181.987 5.39214 181.796 4.05747 181.415C2.7228 181.016 1.64814 180.505 0.833469 179.881L2.26347 176.709C3.04347 177.263 3.96214 177.723 5.01947 178.087C6.09414 178.433 7.17747 178.607 8.26947 178.607C9.10147 178.607 9.7688 178.529 10.2715 178.373C10.7915 178.199 11.1728 177.965 11.4155 177.671C11.6581 177.376 11.7795 177.038 11.7795 176.657C11.7795 176.171 11.5888 175.79 11.2075 175.513C10.8261 175.218 10.3235 174.984 9.69947 174.811C9.07547 174.62 8.38214 174.447 7.61947 174.291C6.87414 174.117 6.12014 173.909 5.35747 173.667C4.61214 173.424 3.92747 173.112 3.30347 172.731C2.67947 172.349 2.16814 171.847 1.76947 171.223C1.38814 170.599 1.19747 169.801 1.19747 168.831C1.19747 167.791 1.4748 166.846 2.02947 165.997C2.60147 165.13 3.4508 164.445 4.57747 163.943C5.72147 163.423 7.15147 163.163 8.86747 163.163C10.0115 163.163 11.1381 163.301 12.2475 163.579C13.3568 163.839 14.3361 164.237 15.1855 164.775L13.8855 167.973C13.0361 167.487 12.1868 167.132 11.3375 166.907C10.4881 166.664 9.65614 166.543 8.84147 166.543C8.0268 166.543 7.35947 166.638 6.83947 166.829C6.31947 167.019 5.9468 167.271 5.72147 167.583C5.49614 167.877 5.38347 168.224 5.38347 168.623C5.38347 169.091 5.57414 169.472 5.95547 169.767C6.3368 170.044 6.83947 170.269 7.46347 170.443C8.08747 170.616 8.77214 170.789 9.51747 170.963C10.2801 171.136 11.0341 171.335 11.7795 171.561C12.5421 171.786 13.2355 172.089 13.8595 172.471C14.4835 172.852 14.9861 173.355 15.3675 173.979C15.7661 174.603 15.9655 175.391 15.9655 176.345C15.9655 177.367 15.6795 178.303 15.1075 179.153C14.5355 180.002 13.6775 180.687 12.5335 181.207C11.4068 181.727 9.9768 181.987 8.24347 181.987ZM18.8435 181.675V163.475H23.0555V181.675H18.8435ZM36.1628 181.987C34.7241 181.987 33.3981 181.761 32.1848 181.311C30.9888 180.843 29.9401 180.184 29.0388 179.335C28.1548 178.485 27.4615 177.489 26.9588 176.345C26.4735 175.201 26.2308 173.944 26.2308 172.575C26.2308 171.205 26.4735 169.949 26.9588 168.805C27.4615 167.661 28.1635 166.664 29.0648 165.815C29.9661 164.965 31.0235 164.315 32.2368 163.865C33.4501 163.397 34.7848 163.163 36.2408 163.163C37.8528 163.163 39.3001 163.431 40.5828 163.969C41.8828 164.506 42.9748 165.286 43.8588 166.309L41.1548 168.805C40.4961 168.111 39.7768 167.6 38.9968 167.271C38.2168 166.924 37.3675 166.751 36.4488 166.751C35.5648 166.751 34.7588 166.889 34.0308 167.167C33.3028 167.444 32.6701 167.843 32.1328 168.363C31.6128 168.883 31.2055 169.498 30.9108 170.209C30.6335 170.919 30.4948 171.708 30.4948 172.575C30.4948 173.424 30.6335 174.204 30.9108 174.915C31.2055 175.625 31.6128 176.249 32.1328 176.787C32.6701 177.307 33.2941 177.705 34.0048 177.983C34.7328 178.26 35.5301 178.399 36.3968 178.399C37.2288 178.399 38.0348 178.269 38.8148 178.009C39.6121 177.731 40.3835 177.272 41.1288 176.631L43.5208 179.673C42.5328 180.418 41.3801 180.99 40.0628 181.389C38.7628 181.787 37.4628 181.987 36.1628 181.987ZM39.6728 179.127V172.289H43.5208V179.673L39.6728 179.127ZM47.4334 181.675V163.475H50.9174L61.6554 176.579H59.9654V163.475H64.1254V181.675H60.6674L49.9034 168.571H51.5934V181.675H47.4334ZM83.8807 181.987C81.2981 181.987 79.2787 181.267 77.8227 179.829C76.3667 178.39 75.6387 176.336 75.6387 173.667V163.475H79.8507V173.511C79.8507 175.244 80.2061 176.492 80.9167 177.255C81.6274 178.017 82.6241 178.399 83.9067 178.399C85.1894 178.399 86.1861 178.017 86.8967 177.255C87.6074 176.492 87.9627 175.244 87.9627 173.511V163.475H92.1227V173.667C92.1227 176.336 91.3947 178.39 89.9387 179.829C88.4827 181.267 86.4634 181.987 83.8807 181.987ZM96.285 181.675V163.475H104.163C105.792 163.475 107.196 163.743 108.375 164.281C109.554 164.801 110.464 165.555 111.105 166.543C111.746 167.531 112.067 168.709 112.067 170.079C112.067 171.431 111.746 172.601 111.105 173.589C110.464 174.577 109.554 175.339 108.375 175.877C107.196 176.397 105.792 176.657 104.163 176.657H98.625L100.497 174.759V181.675H96.285ZM100.497 175.227L98.625 173.225H103.929C105.229 173.225 106.2 172.947 106.841 172.393C107.482 171.838 107.803 171.067 107.803 170.079C107.803 169.073 107.482 168.293 106.841 167.739C106.2 167.184 105.229 166.907 103.929 166.907H98.625L100.497 164.905V175.227ZM130.361 168.649L134.209 174.499L130.361 180.401H126.851L130.387 174.499L126.851 168.649H130.361ZM131.141 173.095V175.929H121.833V173.095H131.141Z" fill="#FFC700"/>
</svg>
